<svg width="32" height="32" viewBox="0 0 32 32" fill="none" xmlns="http://www.w3.org/2000/svg">
<path d="M16 32C7.16344 32 1.05375e-07 24.8366 0 16C-1.05375e-07 7.16344 7.16344 1.05375e-07 16 0C24.8366 -1.05375e-07 32 7.16344 32 16C32 24.8366 24.8366 32 16 32Z" fill="#F9F8F6"/>
<path d="M20.7567 13.7121C21.1337 13.3493 21.743 13.3493 22.1172 13.7121C22.4929 14.0748 22.4956 14.6609 22.1172 15.0237L16.6805 20.2079C16.3048 20.5707 15.6969 20.5707 15.3185 20.2079L9.88172 15.0237C9.50609 14.6623 9.50609 14.0748 9.88172 13.7121C10.2587 13.3493 10.8681 13.3493 11.2423 13.7121L16.0016 17.9637L20.7567 13.7121Z" fill="black"/>
</svg>
